<svg xmlns="http://www.w3.org/2000/svg" viewBox="0 0 174.677 33.096">
  <defs>
    <style>
      .cls-1 {
        fill: #fff;
      }

      .cls-2 {
        fill: #16465b;
      }

      .cls-3 {
        fill: #29abe2;
      }

      .cls-4 {
        fill: #2bace2;
      }

      .cls-5 {
        fill: #dcdbdb;
      }

      .cls-6 {
        fill: #18475c;
      }

      .cls-7 {
        fill: none;
        stroke: #184959;
        stroke-linejoin: round;
        stroke-miterlimit: 10;
        stroke-width: 0.729px;
      }
    </style>
  </defs>
  <g id="Factory_Bucket_Logo_Horiz_Light" transform="translate(-36 -20.9)">
    <path id="Path_4277" data-name="Path 4277" class="cls-1" d="M80.033,63.706a2.434,2.434,0,0,0,.714,1.039c.13,1.364.433,3.983.736,6.515l.195,1.407c.281,2.294.541,4.286.628,4.784.325,1.818,2.836,2.727,7.468,2.727,2.554,0,6.948-.368,7.468-2.727v-.043c.13-1.061,1.19-9.524,1.515-12.749a2.149,2.149,0,0,0,.779-1.147v-.043c.022-.087.368-3.052.368-4.221h0v-.022h0C99.838,57,94.622,56,89.752,56S79.643,57.017,79.6,59.2h0v.022h0v.022a19.046,19.046,0,0,0,.152,1.948Z" transform="translate(-34.163 -27.503)"/>
    <g id="Group_5473" data-name="Group 5473" transform="translate(73.576 31.246)">
      <g id="Group_5472" data-name="Group 5472" transform="translate(0 0)">
        <path id="Path_4278" data-name="Path 4278" class="cls-2" d="M209.6,84.05V70.5h9.2v2.749h-6.082v2.922h5V78.7h-5V84.05Z" transform="translate(-209.6 -70.11)"/>
        <path id="Path_4279" data-name="Path 4279" class="cls-2" d="M252.985,96.311a4.136,4.136,0,0,1-1.385-.238,3.149,3.149,0,0,1-1.1-.671,3.505,3.505,0,0,1-.736-1.017,3.133,3.133,0,0,1-.26-1.277,2.882,2.882,0,0,1,.325-1.364,3.189,3.189,0,0,1,.887-1.061,4.5,4.5,0,0,1,1.364-.693,5.5,5.5,0,0,1,1.732-.238,7.423,7.423,0,0,1,1.212.108,3.656,3.656,0,0,1,1.039.325v-.455c0-1.169-.671-1.732-2.013-1.732a4.23,4.23,0,0,0-1.558.281,7.791,7.791,0,0,0-1.558.823l-.887-1.9a8.1,8.1,0,0,1,2.056-.974,7.8,7.8,0,0,1,2.273-.325,5.184,5.184,0,0,1,3.507,1.061,3.922,3.922,0,0,1,1.234,3.139v2.576a1.026,1.026,0,0,0,.151.649.636.636,0,0,0,.5.216v2.576a5.3,5.3,0,0,1-.736.13,5.676,5.676,0,0,1-.584.022,2.213,2.213,0,0,1-1.3-.325,1.481,1.481,0,0,1-.563-.952l-.065-.455a4.682,4.682,0,0,1-1.6,1.32A4.143,4.143,0,0,1,252.985,96.311Zm.909-2.186a3.081,3.081,0,0,0,.974-.173,2.312,2.312,0,0,0,.779-.455.933.933,0,0,0,.433-.736v-.952a5.059,5.059,0,0,0-.866-.238,4.189,4.189,0,0,0-.866-.087,2.328,2.328,0,0,0-1.385.39,1.155,1.155,0,0,0-.541,1,1.129,1.129,0,0,0,.411.909A1.641,1.641,0,0,0,253.894,94.125Z" transform="translate(-240.864 -82.177)"/>
        <path id="Path_4280" data-name="Path 4280" class="cls-2" d="M300.6,91.095a5.488,5.488,0,0,1,.368-1.97,4.663,4.663,0,0,1,1.061-1.667,4.961,4.961,0,0,1,1.688-1.147,5.828,5.828,0,0,1,2.273-.411,5.325,5.325,0,0,1,2.922.736,4.742,4.742,0,0,1,1.775,1.926l-2.987.887a1.926,1.926,0,0,0-1.732-.952,2.09,2.09,0,0,0-1.6.714,2.691,2.691,0,0,0-.649,1.883,3.437,3.437,0,0,0,.173,1.082,2.351,2.351,0,0,0,.476.823,1.958,1.958,0,0,0,.714.541,2.022,2.022,0,0,0,.866.195,2,2,0,0,0,1.061-.281,1.882,1.882,0,0,0,.714-.714l2.987.909a4.4,4.4,0,0,1-1.775,1.9,5.5,5.5,0,0,1-2.944.736,5.827,5.827,0,0,1-2.273-.433,5.278,5.278,0,0,1-1.71-1.147,4.978,4.978,0,0,1-1.061-1.667A5.274,5.274,0,0,1,300.6,91.095Z" transform="translate(-280.903 -82.177)"/>
        <path id="Path_4281" data-name="Path 4281" class="cls-2" d="M357.743,84.784a12.48,12.48,0,0,1-1.45.5,6.014,6.014,0,0,1-1.623.238,3.537,3.537,0,0,1-1.082-.152,2.166,2.166,0,0,1-.887-.455,2.328,2.328,0,0,1-.606-.823,3.068,3.068,0,0,1-.216-1.234V77.6H350.6V75.282h1.277V72.1h3.052v3.182h2.035V77.6h-2.035v4.178a.977.977,0,0,0,.238.714.888.888,0,0,0,.628.216,2.862,2.862,0,0,0,.714-.108,6.5,6.5,0,0,0,.628-.238Z" transform="translate(-320.08 -71.364)"/>
        <path id="Path_4282" data-name="Path 4282" class="cls-2" d="M390.646,96.311a5.754,5.754,0,0,1-2.273-.411,4.673,4.673,0,0,1-1.688-1.147,4.922,4.922,0,0,1-1.039-1.667,5.555,5.555,0,0,1-.346-1.97,5.471,5.471,0,0,1,.346-1.97,4.843,4.843,0,0,1,2.727-2.814,6.182,6.182,0,0,1,4.546,0,5.181,5.181,0,0,1,1.688,1.147,5.341,5.341,0,0,1,1.061,1.667,5.576,5.576,0,0,1,.368,1.97,5.471,5.471,0,0,1-.346,1.97,4.843,4.843,0,0,1-2.727,2.814A6.127,6.127,0,0,1,390.646,96.311Zm-2.229-5.195a2.844,2.844,0,0,0,.628,1.9,2.142,2.142,0,0,0,2.489.519,2.078,2.078,0,0,0,.693-.541,3.038,3.038,0,0,0,.476-.823,3.3,3.3,0,0,0,.173-1.061,2.844,2.844,0,0,0-.628-1.9,2.014,2.014,0,0,0-1.58-.714,2.047,2.047,0,0,0-.887.195,1.958,1.958,0,0,0-.714.541,3.039,3.039,0,0,0-.476.823A2.8,2.8,0,0,0,388.417,91.117Z" transform="translate(-347.269 -82.177)"/>
        <path id="Path_4283" data-name="Path 4283" class="cls-2" d="M447.264,88.949a5.946,5.946,0,0,0-2.013.368,2.361,2.361,0,0,0-1.3,1.039v6.017H440.9V86.33h2.814v2.035a4.169,4.169,0,0,1,1.32-1.58,2.927,2.927,0,0,1,1.732-.584h.3a.6.6,0,0,1,.195.022Z" transform="translate(-390.834 -82.412)"/>
        <path id="Path_4284" data-name="Path 4284" class="cls-2" d="M474.882,98.337a6.006,6.006,0,0,0,.714.195,3.219,3.219,0,0,0,.606.065,1.06,1.06,0,0,0,.866-.39,4.149,4.149,0,0,0,.563-1.385L473.8,86.8h3.16l2.338,7.4,2.013-7.4h2.857l-3.831,11.645a3.971,3.971,0,0,1-3.874,2.792,4.734,4.734,0,0,1-.779-.065,4.029,4.029,0,0,1-.8-.216V98.337Z" transform="translate(-416.613 -82.882)"/>
        <path id="Path_4285" data-name="Path 4285" class="cls-2" d="M557.712,80.587a3.163,3.163,0,0,1-.368,1.537,2.976,2.976,0,0,1-1,1.082,4.819,4.819,0,0,1-1.472.649,6.761,6.761,0,0,1-1.775.216h-6.6V70.5h7.554a2.779,2.779,0,0,1,1.277.3,2.933,2.933,0,0,1,.974.8,3.953,3.953,0,0,1,.628,1.1,3.684,3.684,0,0,1,.216,1.277,3.727,3.727,0,0,1-.5,1.84,3.21,3.21,0,0,1-1.472,1.3,3.371,3.371,0,0,1,2.532,3.463Zm-8.1-7.424v2.814h3.074a1.293,1.293,0,0,0,.909-.346,1.367,1.367,0,0,0,.411-1.061,1.437,1.437,0,0,0-.346-1.039,1.165,1.165,0,0,0-.844-.368Zm4.892,6.8a1.619,1.619,0,0,0-.368-1.061,1.088,1.088,0,0,0-.909-.433h-3.615v2.965H553.1a1.355,1.355,0,0,0,1.017-.411A1.4,1.4,0,0,0,554.509,79.959Z" transform="translate(-473.577 -70.11)"/>
        <path id="Path_4286" data-name="Path 4286" class="cls-2" d="M607.939,97.017a2.814,2.814,0,0,1-2.338-.974,4.427,4.427,0,0,1-.8-2.836V86.8h3.052v5.758a2.367,2.367,0,0,0,.368,1.407,1.216,1.216,0,0,0,1.039.5,2.4,2.4,0,0,0,1.19-.325,2.753,2.753,0,0,0,1.017-1.126V86.8h3.052v6.58a1.026,1.026,0,0,0,.152.649.635.635,0,0,0,.5.216v2.576c-.3.065-.541.108-.736.13a5.085,5.085,0,0,1-.563.022c-1.1,0-1.71-.433-1.862-1.277l-.065-.606a4.277,4.277,0,0,1-1.71,1.472A5.713,5.713,0,0,1,607.939,97.017Z" transform="translate(-519.258 -82.882)"/>
        <path id="Path_4287" data-name="Path 4287" class="cls-2" d="M657.8,91.095a5.487,5.487,0,0,1,.368-1.97,4.662,4.662,0,0,1,1.061-1.667,4.961,4.961,0,0,1,1.688-1.147,5.828,5.828,0,0,1,2.273-.411,5.325,5.325,0,0,1,2.922.736,4.742,4.742,0,0,1,1.775,1.926l-2.987.887a1.926,1.926,0,0,0-1.732-.952,2.09,2.09,0,0,0-1.6.714,2.691,2.691,0,0,0-.649,1.883,3.436,3.436,0,0,0,.173,1.082,2.351,2.351,0,0,0,.476.823,1.957,1.957,0,0,0,.714.541,2.022,2.022,0,0,0,.866.195,2,2,0,0,0,1.061-.281,1.883,1.883,0,0,0,.714-.714l2.987.909a4.4,4.4,0,0,1-1.775,1.9,5.5,5.5,0,0,1-2.944.736,5.828,5.828,0,0,1-2.273-.433,5.278,5.278,0,0,1-1.71-1.147,4.978,4.978,0,0,1-1.061-1.667A5.758,5.758,0,0,1,657.8,91.095Z" transform="translate(-560.786 -82.177)"/>
        <path id="Path_4288" data-name="Path 4288" class="cls-2" d="M717.632,82.64l-2.619-4.026-1.061,1.1V82.64H710.9V68.7h3.052v8.074l3.377-4.156h3.247l-3.615,4.307,3.918,5.714Z" transform="translate(-602.392 -68.7)"/>
        <path id="Path_4289" data-name="Path 4289" class="cls-2" d="M761.711,96.311a5.828,5.828,0,0,1-2.273-.411,5.226,5.226,0,0,1-1.71-1.126,5.017,5.017,0,0,1-1.061-1.623A5.371,5.371,0,0,1,756.3,91.2a5.873,5.873,0,0,1,.368-2.056,4.566,4.566,0,0,1,1.061-1.688,4.962,4.962,0,0,1,1.688-1.147,6.486,6.486,0,0,1,4.546,0,4.866,4.866,0,0,1,1.688,1.147A5.048,5.048,0,0,1,766.69,89.1a5.472,5.472,0,0,1,.346,1.97,4.155,4.155,0,0,1-.022.519,2.544,2.544,0,0,1-.065.455h-7.4a2.055,2.055,0,0,0,.736,1.537,2.323,2.323,0,0,0,1.493.519,2.815,2.815,0,0,0,1.3-.325,1.632,1.632,0,0,0,.823-.887l2.6.736a4.617,4.617,0,0,1-1.84,1.926A5.226,5.226,0,0,1,761.711,96.311Zm2.121-6.147a2.365,2.365,0,0,0-.693-1.515,2.079,2.079,0,0,0-1.472-.563,2.043,2.043,0,0,0-1.472.563,2.291,2.291,0,0,0-.671,1.494l4.307.022Z" transform="translate(-637.965 -82.177)"/>
        <path id="Path_4290" data-name="Path 4290" class="cls-2" d="M817.143,84.784a12.489,12.489,0,0,1-1.45.5,6.014,6.014,0,0,1-1.623.238,3.537,3.537,0,0,1-1.082-.152,2.166,2.166,0,0,1-.887-.455,2.327,2.327,0,0,1-.606-.823,3.068,3.068,0,0,1-.216-1.234V77.6H810V75.282h1.277V72.1h3.052v3.182h2.035V77.6h-2.035v4.178a.978.978,0,0,0,.238.714.888.888,0,0,0,.628.216,2.862,2.862,0,0,0,.714-.108,6.5,6.5,0,0,0,.628-.238Z" transform="translate(-680.042 -71.364)"/>
      </g>
    </g>
    <path id="Path_4291" data-name="Path 4291" class="cls-3" d="M94.48,99.476c-1.818,0-7.294-.281-8.68-1.515l.758-.779c.779.693,4.827,1.212,7.922,1.212,2.727,0,6.191-.173,8.745-1.494l.519.931C100.952,99.281,97.315,99.476,94.48,99.476Z" transform="translate(-39.021 -59.55)"/>
    <g id="Group_5475" data-name="Group 5475" transform="translate(46 32.913)">
      <g id="Group_5474" data-name="Group 5474" transform="translate(0 0)">
        <path id="Path_4292" data-name="Path 4292" class="cls-4" d="M82.5,79.236c.455.758,1.926,1.515,4.892,1.926l-.087-2.381c3.29.606,11.688.281,14.394-1.472l-.39-.866c-2.684,1.515-7.013,1.6-9.481,1.667-2.121.087-7.121-.26-9.632-1.71Z" transform="translate(-82.2 -76.4)"/>
      </g>
    </g>
    <path id="Path_4293" data-name="Path 4293" class="cls-5" d="M48.9,148.026a18.361,18.361,0,0,0,14.372-.8c1.6-.779-6.515,3.225-14.567,3.225S36,149,36,147.225c0-1.732,4.372-3.139,11.948-3.225Z" transform="translate(0 -96.455)"/>
    <g id="Group_5476" data-name="Group 5476" transform="translate(47.342 37.718)">
      <path id="Path_4294" data-name="Path 4294" class="cls-4" d="M88.4,98.6c.3,2.727,1.017,8.68,1.515,12.727.108.5.693,1.364,3.723,1.775l-.823-12.9" transform="translate(-88.4 -98.6)"/>
    </g>
    <g id="Group_5477" data-name="Group 5477" transform="translate(56.628 45.511)">
      <path id="Path_4295" data-name="Path 4295" class="cls-5" d="M138,136.5s-1.017.108-2.273.26c-1.45.195-2.424.238-2.424.238l.195,5.952,4.026-.541Z" transform="translate(-132.867 -136.089)"/>
      <path id="Path_4296" data-name="Path 4296" class="cls-6" d="M131.906,141.873a.358.358,0,0,1-.26-.108.455.455,0,0,1-.152-.3l-.195-5.952a.411.411,0,0,1,.411-.411s1-.043,2.381-.238c1.255-.152,2.273-.26,2.273-.26a.719.719,0,0,1,.346.108c.108.087.108.195.108.346l-.5,5.909a.414.414,0,0,1-.346.39l-4.026.541C131.949,141.873,131.906,141.873,131.906,141.873Zm.238-6,.152,5.13,3.225-.411.411-5.087c-.411.043-1.061.108-1.775.195C133.27,135.79,132.555,135.834,132.144,135.877Z" transform="translate(-131.3 -134.6)"/>
    </g>
    <rect id="Rectangle_2503" data-name="Rectangle 2503" class="cls-6" width="4.394" height="0.238" transform="translate(57.018 47.82) rotate(-6.021)"/>
    <path id="Path_4297" data-name="Path 4297" class="cls-7" d="M133.4,144.9" transform="translate(-76.317 -97.16)"/>
    <rect id="Rectangle_2504" data-name="Rectangle 2504" class="cls-6" width="4.394" height="0.238" transform="translate(56.974 48.426) rotate(-6.021)"/>
    <rect id="Rectangle_2505" data-name="Rectangle 2505" class="cls-6" width="4.394" height="0.238" transform="translate(56.974 48.989) rotate(-6.021)"/>
    <rect id="Rectangle_2506" data-name="Rectangle 2506" class="cls-6" width="4.394" height="0.238" transform="translate(56.931 49.595) rotate(-6.021)"/>
    <rect id="Rectangle_2507" data-name="Rectangle 2507" class="cls-6" width="4.394" height="0.238" transform="translate(56.931 50.158) rotate(-6.021)"/>
    <rect id="Rectangle_2508" data-name="Rectangle 2508" class="cls-6" width="4.394" height="0.238" transform="translate(56.888 50.764) rotate(-6.021)"/>
    <rect id="Rectangle_2509" data-name="Rectangle 2509" class="cls-6" width="4.394" height="0.238" transform="translate(56.888 51.349) rotate(-6.021)"/>
    <rect id="Rectangle_2510" data-name="Rectangle 2510" class="cls-6" width="4.394" height="0.238" transform="translate(57.039 47.236) rotate(-6.021)"/>
    <path id="Path_4298" data-name="Path 4298" class="cls-6" d="M88.4,98.6" transform="translate(-41.058 -60.882)"/>
    <path id="Path_4299" data-name="Path 4299" class="cls-6" d="M95.638,56.7h0c-.065-2.338-5.563-3.4-10.693-3.4s-10.628,1.061-10.693,3.377h0V56.7h0v.022c0,.5.065,1.277.152,2.056a.658.658,0,0,0-.108.152c-1.32,3.268-1.147,7.619.411,10.173a4.963,4.963,0,0,0,1.753,1.732c.3,2.424.563,4.5.649,5.022.346,1.9,2.987,2.879,7.857,2.879,2.684,0,7.316-.39,7.857-2.879v-.043c.13-1.126,1.255-10.022,1.6-13.42a2.392,2.392,0,0,0,.823-1.212v-.043c.022-.108.39-3.2.39-4.437Zm-7.6,6.494c.39-.823.606-1.407.628-1.45a.561.561,0,1,0-1.061-.368c-.022.022-.325.823-.887,1.926-.563.022-1.147.043-1.775.043-5.736,0-8.94-1.169-9.178-2.359-.043-.043-.173-1.342-.3-2.576,1.9,1.169,5.8,1.71,9.481,1.71,3.658,0,7.511-.541,9.437-1.688-.087,1.1-.216,2.338-.26,2.511C93.95,61.742,91.959,62.824,88.041,63.192Zm-1.948,1.255c-1.558,2.684-4.264,6.1-7.857,5.823a2.967,2.967,0,0,1-.758-.173c-.325-2.684-.649-5.281-.823-6.9,1.753.823,4.61,1.277,8.29,1.277C85.335,64.469,85.725,64.469,86.093,64.447ZM84.946,54.382c6.364,0,9.546,1.45,9.589,2.294-.043.844-3.268,2.294-9.589,2.294-6.364,0-9.546-1.45-9.589-2.294C75.4,55.854,78.582,54.382,84.946,54.382ZM75.66,68.538a10.631,10.631,0,0,1-.931-7.143,2.367,2.367,0,0,0,.758,1.082c.13,1.429.455,4.2.779,6.862A5.964,5.964,0,0,1,75.66,68.538ZM91.742,75.66c-.238,1-2.121,2.013-6.8,2.013-5.8,0-6.667-1.407-6.8-1.97-.173-1.364-.346-2.879-.541-4.437a1.966,1.966,0,0,0,.5.065,2.284,2.284,0,0,0,.541.043c2.576,0,5.13-1.623,7.359-4.675a21.955,21.955,0,0,0,1.429-2.338,17,17,0,0,0,5.823-1.277C92.954,65.876,92.283,71.612,91.742,75.66Z" transform="translate(-29.313 -25.387)"/>
    <g id="Group_5478" data-name="Group 5478" transform="translate(51.13 21.679)">
      <path id="Path_4300" data-name="Path 4300" class="cls-5" d="M110.356,26.8h-1.3l-.758,8.983a3.274,3.274,0,0,0,1.407.26,3.651,3.651,0,0,0,1.407-.26Z" transform="translate(-107.781 -26.302)"/>
      <path id="Path_4301" data-name="Path 4301" class="cls-6" d="M107.826,34.738a3.474,3.474,0,0,1-1.667-.346.556.556,0,0,1-.26-.455l.758-8.983a.512.512,0,0,1,.5-.455h1.3a.512.512,0,0,1,.5.455l.758,8.983a.6.6,0,0,1-.26.5A4.748,4.748,0,0,1,107.826,34.738Zm-.909-1.1a3.967,3.967,0,0,0,.909.108,6.538,6.538,0,0,0,.909-.108l-.714-8.16h-.368Z" transform="translate(-105.9 -24.5)"/>
    </g>
    <g id="Group_5479" data-name="Group 5479" transform="translate(46.996 20.9)">
      <path id="Path_4302" data-name="Path 4302" class="cls-5" d="M91.056,23.3h-1.3L89,33.019a2.889,2.889,0,0,0,1.407.3,3.214,3.214,0,0,0,1.407-.3Z" transform="translate(-88.524 -22.781)"/>
      <path id="Path_4303" data-name="Path 4303" class="cls-6" d="M88.7,31.917a2.983,2.983,0,0,1-1.667-.39.536.536,0,0,1-.238-.455l.758-9.719a.512.512,0,0,1,.5-.455h1.3a.512.512,0,0,1,.5.455l.758,9.719a.579.579,0,0,1-.26.5A4.286,4.286,0,0,1,88.7,31.917Zm-.909-1.1a2.456,2.456,0,0,0,.909.108,3.026,3.026,0,0,0,.909-.152L88.9,21.9h-.39Z" transform="translate(-86.8 -20.9)"/>
    </g>
  </g>
</svg>
